<?xml version="1.0" encoding="utf-8"?>
<!-- Generator: Adobe Illustrator 18.0.0, SVG Export Plug-In . SVG Version: 6.00 Build 0)  -->
<!DOCTYPE svg PUBLIC "-//W3C//DTD SVG 1.1//EN" "http://www.w3.org/Graphics/SVG/1.1/DTD/svg11.dtd">
<svg version="1.1" id="Livello_1" xmlns="http://www.w3.org/2000/svg" xmlns:xlink="http://www.w3.org/1999/xlink" x="0px" y="0px"
	 viewBox="0 0 251 318" enable-background="new 0 0 251 318" xml:space="preserve">
<g>
	<path fill="#202431" d="M197.8,95.2c-24.6,12.2-48.7,18.5-72.4,19c-23.6-0.6-47.7-6.8-72.4-19c-45-24.2-54.8,44.2,0,36.1
		c23.3-2.9,48.3-3.4,72.5-3.2c24.2-0.2,49.1,0.6,72.4,3.5C252.7,139.7,242.9,71,197.8,95.2z"/>
	<path fill="#202431" d="M182.3,96.1l8.6-70.5c-17.7-29.2-106.6-36.2-132.1,0l8.3,70.5C105.8,89.1,139,89.6,182.3,96.1z"/>
	<path fill="#202431" d="M58.6,167.3c2.8-1.2,7,0.6,6.9,5.9c5.2-6.3-2.3-12.8-9.4-10.9c-5.4,1.5-9.4,8.4-8.2,17.9
		c1.2,10.1,10.5,18.4,21.2,21.8V230c0,9.2,8.1,16,17.3,16h79.6c9.2,0,15.1-6.8,15.1-16v-27.8c10.8-3.4,20.1-11.7,21.4-21.9
		c1.2-9.5-2.8-16.4-8.2-17.9c-7.2-1.9-14.6,4.6-9.4,10.9c-0.2-5.3,4.1-7.1,6.9-5.9c3,1.3,4,4,4,6.4c0.2,5.5-6.6,10.1-14.6,8.4v-47.1
		l-6-0.7v45.3c-3.9-2.4-7.8-6.5-11.1-12.8c-9.6-18.4-30.8-18.1-38.8-4.4c-7.9-13.7-29.2-14-38.8,4.4c-3.1,5.9-6.7,9.9-10.3,12.3
		v-44.7l-7,0.7v47c-8,1.6-14.7-3-14.5-8.5C54.6,171.3,55.6,168.6,58.6,167.3z M125.7,237.4c-3.4,0-6.2-2.8-6.2-6.2
		c0-3.4,2.8-6.2,6.2-6.2c3.4,0,6.2,2.8,6.2,6.2C131.9,234.6,129.1,237.4,125.7,237.4z M76,203.7c0.4,0,0.7,0.1,1.1,0.1
		c13.6,1.1,37.3-4.6,48-22.7c10.6,18.2,34.4,23.8,48,22.7c0.6-0.1,1.3-0.1,1.9-0.2V216H76V203.7z"/>
	<path fill="#202431" d="M214.7,284.4c0-1.7,1.8-2.5,4-2.5c2,0,4.4,1,4.4,2.6c0,0.7-0.3,1-0.3,1s0.3,0.5,1.3,0.5
		c0.9,0,1.9-0.6,1.9-1.8c0-2.1-2.7-4.2-7.6-4.2c-5.1,0-7.5,1.9-7.5,4.7c-0.1,7,12.1,5.4,12,10.6c0,2.4-1.7,3.4-4.8,3.4
		c-4.3,0-6.6-3.1-6.6-7c0-1,0.3-1.7,0.3-1.7s-0.2-0.5-1.3-0.5c-1,0-1.8,1-1.8,2.7c0,0.1,0,0.1,0,0.2c-2.4-4.4-11.8-3.9-11.8-8.2
		c0-1.7,1.8-2.5,4-2.5c2,0,4.4,1,4.4,2.6c0,0.7-0.3,1-0.3,1s0.3,0.5,1.3,0.5c0.9,0,1.9-0.6,1.9-1.8c0-2.1-2.7-4.2-7.6-4.2
		c-5.1,0-7.5,1.9-7.5,4.7c-0.1,7,12.1,5.4,12,10.6c0,2.4-1.7,3.4-4.8,3.4c-4.3,0-6.6-3.1-6.6-7c0-1,0.3-1.7,0.3-1.7
		s-0.2-0.5-1.3-0.5c-1,0-1.8,1-1.8,2.7c0,1.1,0.2,2.1,0.6,3c-0.7,2.5-2,3.5-3.6,3.5c-1.8,0-3-1.7-3-5.2v-12.9c0,0-0.4-0.6-1.7-0.6
		c-0.9,0-1.7,0.4-2.1,1.3c-0.8-0.8-2.1-1.3-4.4-1.3c-4.9,0-8.8,2.8-8.9,9.9c0,0,0,0,0,0c0,6.9-2.9,8.8-4.7,8.8
		c-2.2,0-3.7-1.7-3.7-5.2v-12c2.2-1.3,5.8-4.5,5.8-11.4c0-4.1-1.5-6-4.4-6c-4.3,0-5.5,3.9-5.5,11.2v16.9c0,0,0,0.1,0,0.1
		c-0.4,4.3-3.6,6.4-7.4,6.4c-3.9,0-6.5-2.5-6.5-7.9c0-6.6,1.2-9.1,4-9.1c1.6,0,2.9,1.6,2.9,3.6c0,1-0.3,1.7-0.3,1.7s0.3,0.5,1.3,0.5
		c1,0,2.2-0.9,2.2-2.5c0-2.3-1.3-5.1-5.4-5.1c-3.4,0-6.3,1.6-7.8,4.9c-0.3-2.1-1.7-4.3-5.4-4.3c-3.1,0-5,2.6-6.2,5.6v-3.4
		c0-1.9-1.1-2.7-2.3-2.7c-1.3,0-1.7,0.6-1.7,0.6v10.9c-0.4,5-4,7.2-7.4,7.2c-3.3,0-5.7-1.8-6.3-5.8c5.8,0,10-3.3,10-7.8
		c0-2.3-1.3-5.1-5.4-5.1c-1.2,0-2.4,0.2-3.5,0.7c-0.1,0-0.2,0-0.4,0c-3.5,0-7.2,0.4-10.5,1.5c-1.5-1.5-3.5-2.2-5.8-2.2
		c-2.7,0-5,1.6-6.4,3.7v-1c0-0.2,0-0.4,0-0.6c0.1-0.1,0.1-0.3,0.1-0.5c0-0.3-0.1-0.8-0.8-0.9c-0.4-0.5-1-0.7-1.7-0.7
		c-1.3,0-1.7,0.6-1.7,0.6v0.1c-2.6,0.2-5.2,0.6-7.6,1.4c-1.5-1.5-3.5-2.2-5.8-2.2c-2.7,0-5,1.6-6.4,3.7v-1c0-1.9-1.1-2.7-2.3-2.7
		c-1.3,0-1.7,0.6-1.7,0.6v9.4c-0.1,0-0.2,0-0.3,0l-5.9,0l-7.9-26.6c0,0-0.6-0.6-1.8-0.6c-0.9,0-2.5,1-2.1,2.5l1.3,4.4
		c-0.4,0.4-0.7,1.1-0.9,1.9l-6.6,18.5c-6.4,0-14.1,2.9-14.1,10.7c0,3.4,2.2,5.3,5.7,5.3c5.2,0,7.9-4.3,9.1-7.6l2.2-6.1h11.4
		l3.2,10.6c0,0,0.6,0.6,1.8,0.6c0.9,0,2.4-1.2,2-2.7l-2.6-8.5h5.5v22.3c0,1.9,1.1,2.7,2.3,2.7c1.3,0,1.7-0.6,1.7-0.6v-26.7
		c0-6.1,3.6-8.3,5.8-8.3c1.1,0,2.3,0.3,3.3,1.6c-4.3,2.1-7.3,5.6-7.3,11c0,4.6,3,6,5.3,6c4.6,0,7.9-3.7,7.9-10c0-2.8-0.5-5-1.5-6.6
		c2.1-0.7,4.4-1.1,6.4-1.3v32.1c0,1.9,1.1,2.7,2.3,2.7c1.3,0,1.7-0.6,1.7-0.6v-26.7c0-6.1,3.6-8.3,5.8-8.3c1.1,0,2.3,0.3,3.3,1.6
		c-4.3,2.1-7.3,5.6-7.3,11c0,4.6,3,6,5.3,6c4.6,0,7.9-3.7,7.9-10c0-2.8-0.5-5-1.5-6.6c2.4-0.8,4.9-1.2,7.1-1.4
		c-1.7,1.8-2.8,4.5-2.8,8.2c0,6.4,4.1,9.8,10.7,9.8c3.6,0,5.9-1.5,7.4-3.6v0.8c0,1.9,1.1,2.7,2.3,2.7c1.3,0,1.7-0.6,1.7-0.6v-7.1
		c0-2.8,2.3-10.3,5.5-10.3c1.6,0,2.9,1.6,2.9,3.6c0,1-0.3,1.7-0.3,1.7s0.3,0.5,1.3,0.5c0.4,0,0.8-0.2,1.2-0.4
		c-0.2,0.9-0.3,1.9-0.3,2.9c0,6.4,4.1,9.8,10.7,9.8c4.1,0,6.7-2.1,8-4.3c1,2.7,3.1,4.3,6.6,4.3c2.8,0,5-1.9,6-4.7
		c1.2,3.3,3.6,4.7,7,4.7c2.6,0,4.6-1.7,5.7-4c0.9,2.6,2.9,4,6,4c2.4,0,4.2-1.3,5.2-3.4c1.6,2,4.2,3.4,7.5,3.4c4.9,0,8.7-1.6,9-5.3
		c1.2,3.1,4.3,5.3,8.6,5.3c5.1,0,9-1.7,9-5.7C227.1,288,214.7,289.3,214.7,284.4z M161.6,266c1.3,0,2.2,1.3,2.2,4.3
		c0,5.6-2.2,8.2-3.9,9.4C159.8,267.2,160.2,266,161.6,266z M32.7,297.5c-0.9,2.3-2.6,6.8-5.8,6.8c-1.8,0-3.1-1.1-3.1-3.3
		c0-5.1,4.1-8.5,10.7-8.5L32.7,297.5z M39,290.2l5.5-17l4.4,17H39z M70.6,298.8c-1.4,0-2.9-1.3-2.9-4.1c0-4.5,2.6-7.4,5.9-9.2
		c0.4,1.3,0.6,2.9,0.6,5.2C74.2,297.2,72.8,298.8,70.6,298.8z M94.4,298.8c-1.4,0-2.9-1.3-2.9-4.1c0-4.5,2.6-7.4,5.9-9.2
		c0.4,1.3,0.6,2.9,0.6,5.2C98.1,297.2,96.7,298.8,94.4,298.8z M109.4,291c0-6.6,1.2-9.1,4-9.1c1.8,0,2.9,1.3,2.9,3.6
		c0,4-3.9,5.5-6.9,5.9V291z M181.2,292.8c0,4-3.1,6.1-4.6,6.1c-2.2,0-4.1-1-4.1-8.5s2.1-8.4,5.1-8.4c1.8,0,3.7,1.8,3.7,4.7V292.8z"
		/>
</g>
</svg>
